<svg width="220" height="43" viewBox="0 0 220 43" fill="none" xmlns="http://www.w3.org/2000/svg">
<path d="M0.603673 33V0.272726H8.51383V13.4084H21.4098V0.272726H29.304V33H21.4098V19.8484H8.51383V33H0.603673ZM42.1235 33.4634C39.5454 33.4634 37.3295 32.9361 35.4758 31.8814C33.6328 30.8161 32.2105 29.3352 31.2091 27.4389C30.2183 25.532 29.723 23.3214 29.723 20.8072C29.723 18.2823 30.2183 16.0717 31.2091 14.1754C32.2105 12.2685 33.6328 10.7876 35.4758 9.73295C37.3295 8.66761 39.5454 8.13494 42.1235 8.13494C44.7016 8.13494 46.9122 8.66761 48.7553 9.73295C50.609 10.7876 52.0312 12.2685 53.022 14.1754C54.0234 16.0717 54.5241 18.2823 54.5241 20.8072C54.5241 23.3214 54.0234 25.532 53.022 27.4389C52.0312 29.3352 50.609 30.8161 48.7553 31.8814C46.9122 32.9361 44.7016 33.4634 42.1235 33.4634ZM42.1715 27.5668C43.109 27.5668 43.9026 27.2791 44.5525 26.7038C45.2024 26.1286 45.6977 25.3295 46.0387 24.3068C46.3902 23.2841 46.566 22.1016 46.566 20.7592C46.566 19.3956 46.3902 18.2024 46.0387 17.1797C45.6977 16.157 45.2024 15.358 44.5525 14.7827C43.9026 14.2074 43.109 13.9197 42.1715 13.9197C41.202 13.9197 40.3817 14.2074 39.7105 14.7827C39.05 15.358 38.544 16.157 38.1924 17.1797C37.8515 18.2024 37.6811 19.3956 37.6811 20.7592C37.6811 22.1016 37.8515 23.2841 38.1924 24.3068C38.544 25.3295 39.05 26.1286 39.7105 26.7038C40.3817 27.2791 41.202 27.5668 42.1715 27.5668ZM70.7634 22.4052V8.45454H78.5617V33H71.115V28.4297H70.8593C70.316 29.9318 69.3891 31.125 68.0787 32.0092C66.779 32.8828 65.2076 33.3196 63.3646 33.3196C61.692 33.3196 60.2219 32.9361 58.9541 32.169C57.6863 31.402 56.7009 30.3313 55.9978 28.957C55.2947 27.5721 54.9378 25.9528 54.9271 24.0991V8.45454H62.7414V22.565C62.752 23.8967 63.1036 24.946 63.7961 25.7131C64.4885 26.4801 65.4314 26.8636 66.6246 26.8636C67.4023 26.8636 68.1 26.6932 68.7179 26.3523C69.3465 26.0007 69.8419 25.4947 70.2041 24.8342C70.577 24.163 70.7634 23.3533 70.7634 22.4052ZM101.365 15.9492L94.1898 16.141C94.1152 15.6296 93.9128 15.1768 93.5825 14.7827C93.2523 14.3778 92.8208 14.0636 92.2881 13.8398C91.7661 13.6055 91.1589 13.4883 90.4664 13.4883C89.5609 13.4883 88.7885 13.6694 88.1493 14.0316C87.5207 14.3938 87.2118 14.8839 87.2224 15.5018C87.2118 15.9812 87.4035 16.3967 87.7977 16.7482C88.2026 17.0998 88.9217 17.3821 89.955 17.5952L94.6852 18.4901C97.1354 18.9588 98.9572 19.7365 100.15 20.8232C101.354 21.9098 101.961 23.348 101.972 25.1378C101.961 26.821 101.461 28.2859 100.47 29.5323C99.4898 30.7788 98.1475 31.7482 96.443 32.4407C94.7384 33.1225 92.7888 33.4634 90.5942 33.4634C87.0893 33.4634 84.3247 32.7443 82.3006 31.3061C80.2871 29.8572 79.1365 27.9183 78.8489 25.4893L86.5673 25.2976C86.7377 26.1925 87.1798 26.8743 87.8936 27.343C88.6074 27.8118 89.5182 28.0462 90.6262 28.0462C91.6276 28.0462 92.4426 27.8597 93.0712 27.4869C93.6997 27.114 94.0193 26.6186 94.03 26.0007C94.0193 25.4467 93.7743 25.0046 93.2949 24.6744C92.8155 24.3335 92.0644 24.0671 91.0417 23.8754L86.759 23.0604C84.2981 22.6129 82.4657 21.7873 81.2619 20.5835C80.058 19.369 79.4614 17.8242 79.4721 15.9492C79.4614 14.3086 79.8982 12.9077 80.7825 11.7464C81.6667 10.5746 82.9238 9.67969 84.5538 9.06179C86.1837 8.44389 88.1067 8.13494 90.3226 8.13494C93.6464 8.13494 96.2672 8.83274 98.1848 10.2283C100.102 11.6133 101.162 13.5202 101.365 15.9492ZM113.693 33.4634C111.126 33.4634 108.91 32.9574 107.045 31.9453C105.192 30.9226 103.764 29.4684 102.763 27.5827C101.772 25.6864 101.276 23.4332 101.276 20.8232C101.276 18.2876 101.777 16.0717 102.779 14.1754C103.78 12.2685 105.192 10.7876 107.013 9.73295C108.835 8.66761 110.982 8.13494 113.453 8.13494C115.2 8.13494 116.798 8.4066 118.247 8.94993C119.696 9.49325 120.948 10.2976 122.003 11.3629C123.057 12.4283 123.878 13.744 124.464 15.31C125.05 16.8654 125.343 18.6499 125.343 20.6634V22.6129H104.009V18.0746H118.072C118.061 17.2436 117.864 16.5032 117.48 15.8533C117.097 15.2035 116.569 14.6974 115.898 14.3352C115.238 13.9624 114.476 13.7759 113.613 13.7759C112.74 13.7759 111.957 13.973 111.264 14.3672C110.572 14.7507 110.023 15.2781 109.618 15.9492C109.213 16.6097 109 17.3608 108.979 18.2024V22.8207C108.979 23.8221 109.176 24.701 109.57 25.4574C109.964 26.2031 110.524 26.7837 111.248 27.1992C111.972 27.6147 112.835 27.8224 113.837 27.8224C114.529 27.8224 115.158 27.7266 115.722 27.5348C116.287 27.343 116.772 27.0607 117.177 26.6879C117.582 26.315 117.885 25.8569 118.088 25.3136L125.263 25.5213C124.964 27.13 124.309 28.5309 123.297 29.7241C122.296 30.9066 120.98 31.8281 119.35 32.4886C117.72 33.1385 115.834 33.4634 113.693 33.4634ZM131.802 33V0.272726H139.712V13.4084H152.608V0.272726H160.502V33H152.608V19.8484H139.712V33H131.802ZM173.337 33.4634C170.77 33.4634 168.554 32.9574 166.69 31.9453C164.836 30.9226 163.408 29.4684 162.407 27.5827C161.416 25.6864 160.921 23.4332 160.921 20.8232C160.921 18.2876 161.422 16.0717 162.423 14.1754C163.424 12.2685 164.836 10.7876 166.658 9.73295C168.479 8.66761 170.626 8.13494 173.098 8.13494C174.845 8.13494 176.443 8.4066 177.892 8.94993C179.341 9.49325 180.592 10.2976 181.647 11.3629C182.702 12.4283 183.522 13.744 184.108 15.31C184.694 16.8654 184.987 18.6499 184.987 20.6634V22.6129H163.653V18.0746H177.716C177.705 17.2436 177.508 16.5032 177.125 15.8533C176.741 15.2035 176.214 14.6974 175.543 14.3352C174.882 13.9624 174.12 13.7759 173.257 13.7759C172.384 13.7759 171.601 13.973 170.908 14.3672C170.216 14.7507 169.667 15.2781 169.262 15.9492C168.858 16.6097 168.645 17.3608 168.623 18.2024V22.8207C168.623 23.8221 168.82 24.701 169.214 25.4574C169.609 26.2031 170.168 26.7837 170.892 27.1992C171.617 27.6147 172.48 27.8224 173.481 27.8224C174.174 27.8224 174.802 27.7266 175.367 27.5348C175.931 27.343 176.416 27.0607 176.821 26.6879C177.226 26.315 177.529 25.8569 177.732 25.3136L184.907 25.5213C184.609 27.13 183.953 28.5309 182.941 29.7241C181.94 30.9066 180.624 31.8281 178.994 32.4886C177.364 33.1385 175.479 33.4634 173.337 33.4634ZM193.192 0.272726V33H185.378V0.272726H193.192ZM194.566 42.2045V8.45454H202.3V12.6573H202.54C202.86 11.9116 203.312 11.1925 203.898 10.5C204.495 9.80753 205.251 9.2429 206.168 8.80611C207.094 8.35866 208.202 8.13494 209.491 8.13494C211.196 8.13494 212.789 8.58239 214.269 9.47727C215.761 10.3722 216.965 11.7518 217.881 13.6161C218.797 15.4805 219.255 17.8562 219.255 20.7433C219.255 23.5238 218.813 25.8516 217.929 27.7266C217.055 29.6016 215.873 31.0078 214.381 31.9453C212.901 32.8828 211.255 33.3516 209.443 33.3516C208.208 33.3516 207.137 33.1491 206.231 32.7443C205.326 32.3395 204.564 31.8068 203.946 31.1463C203.339 30.4858 202.87 29.7773 202.54 29.021H202.38V42.2045H194.566ZM202.22 20.7273C202.22 22.0483 202.396 23.1989 202.748 24.179C203.11 25.1591 203.627 25.9208 204.298 26.4641C204.98 26.9968 205.795 27.2631 206.743 27.2631C207.702 27.2631 208.517 26.9968 209.188 26.4641C209.859 25.9208 210.365 25.1591 210.706 24.179C211.057 23.1989 211.233 22.0483 211.233 20.7273C211.233 19.4062 211.057 18.261 210.706 17.2915C210.365 16.3221 209.859 15.571 209.188 15.0384C208.527 14.5057 207.712 14.2393 206.743 14.2393C205.784 14.2393 204.969 14.5004 204.298 15.0224C203.627 15.5444 203.11 16.2901 202.748 17.2596C202.396 18.229 202.22 19.3849 202.22 20.7273Z" fill="#06E6B0"/>
</svg>
